<svg xmlns="http://www.w3.org/2000/svg" xmlns:xlink="http://www.w3.org/1999/xlink" width="597.11" height="149.69" viewBox="0 0 597.11 149.69">
  <defs>
    <linearGradient id="a" x1="36.9" y1="46.91" x2="36.9" y2="18.81" gradientUnits="userSpaceOnUse">
      <stop offset="0" stop-color="#fff"/>
      <stop offset="1" stop-color="#faae1a"/>
    </linearGradient>
    <symbol id="b" data-name="RSS" viewBox="0 0 55.49 55.56">
      <path d="M36.28,55.56H26.41A26.82,26.82,0,0,0,18.53,37,26.71,26.71,0,0,0,0,29.06V19.22A36.87,36.87,0,0,1,36.28,55.56Z" style="fill: #4068b1"/>
      <path d="M55.49,55.56H45.64A46.24,46.24,0,0,0,0,9.83V0A56.1,56.1,0,0,1,55.49,55.56Z" style="fill: #4068b1"/>
    </symbol>
    <symbol id="c" data-name="Go to Web" viewBox="0 0 64 64.01">
      <path d="M61.3,44.88c.3-.68.57-1.38.82-2.09-.25.71-.53,1.4-.83,2.08ZM56.18,36.2c.06-.34.11-.69.15-1,0,.35-.1.69-.16,1ZM54.81,23a24.08,24.08,0,0,0-3-5.46,24.84,24.84,0,0,1,3,5.46Zm-1.92,14.2c.59-.15,1.16-.31,1.71-.47-.55.16-1.12.31-1.72.46ZM51.37,26.5l2.21.54C52.88,26.85,52.14,26.67,51.37,26.5ZM50.2,15.56c.55.62,1.07,1.26,1.57,1.93A24,24,0,0,0,50.2,15.56ZM48.44,13.8a24,24,0,0,0-1.93-1.57C47.18,12.73,47.82,13.25,48.44,13.8ZM41.05,9.2a24.43,24.43,0,0,1,5.46,3,24.08,24.08,0,0,0-5.46-3ZM39.19,24.8l0,.38c0-.13,0-.25,0-.38Zm-.39-4.29h0A65.87,65.87,0,0,0,36.38,8.44,67.69,67.69,0,0,1,38.8,20.51ZM36.18,7.82c.07.2.13.41.2.62-.06-.21-.13-.42-.19-.62ZM32.09,56.55h0Zm-3.54-12.9q1.69.06,3.45.06h0C30.83,43.7,29.69,43.68,28.55,43.65ZM29,63.86h.15c-.33,0-.66-.06-1-.11ZM25.2,43.49h0c1.1.07,2.21.12,3.34.15C27.41,43.61,26.3,43.56,25.2,43.49Zm-4.33-.36A77.34,77.34,0,0,0,22.94,54.8h0a77,77,0,0,1-2.07-11.68Zm-3.16-.39c-2.06-.29-4-.64-5.85-1Q14.62,42.32,17.71,42.74ZM9.19,41.06c.86.23,1.74.44,2.66.64-.92-.21-1.81-.42-2.66-.65ZM.52,26.31l.18-.93c-.07.31-.13.62-.19.93ZM.27,27.85c0,.35-.09.7-.11,1.06,0-.3.06-.6.1-.9s0-.36.07-.53l0,.18ZM0,30.92c0-.16,0-.31,0-.47s0-.48,0-.72L0,30.5C0,30.64,0,30.78,0,30.92Z"/>
      <path d="M64,30.49c0-.33,0-.66-.07-1l0-.45c0-.41-.09-.83-.15-1.24v0s0-.08,0-.11c0-.21,0-.41-.09-.62s-.07-.47-.11-.7c0,0,0,0,0,0L63.22,25c-.1-.43-.2-.86-.32-1.28l-.47-1.6c-.1-.3-.2-.61-.31-.91s-.3-.82-.47-1.22-.33-.8-.51-1.19-.37-.79-.56-1.17-.4-.77-.61-1.15c-.41-.75-.86-1.49-1.34-2.2-.18-.27-.36-.54-.55-.8l-1-1.28q-.39-.51-.81-1l-.78-.88-.91-.95c-.64-.64-1.3-1.25-2-1.83l-.9-.74c-.43-.33-.86-.65-1.3-1l-.67-.46c-.32-.22-.64-.42-1-.62l-.59-.35c-.29-.18-.58-.34-.87-.5s-.6-.32-.9-.47-.56-.29-.85-.42l-.71-.32c-.47-.21-1-.41-1.43-.59s-.65-.25-1-.36A30.8,30.8,0,0,0,37.69.52l-.3-.05-.9-.14L35.87.25l-1-.11-.34,0-1-.07C33,0,32.5,0,32,0s-1,0-1.5,0-.89.06-1.33.1h-.06a32,32,0,0,0-26.4,19c-.3.64-.56,1.3-.8,2a29,29,0,0,0-1,3.33l-.21.93-.18.93h0l0,.19s0,.08,0,.12c-.05.29-.09.57-.13.86s0,.35-.07.53-.08.6-.1.9a.06.06,0,0,0,0,0l-.06.73v.05c0,.24,0,.48,0,.72s0,.31,0,.47c0,.36,0,.72,0,1.08s0,1,0,1.51c0,.32.05.64.07,1s0,.33,0,.5c0,.4.08.8.13,1.2l0,.19c.06.42.12.84.2,1.26a.22.22,0,0,0,0,.08L.77,39c.1.43.2.86.32,1.28l.3,1.07c.1.33.21.66.32,1l.07.2c.07.2.14.4.22.6s.21.58.34.87v0c.14.38.3.75.47,1.12l.06.13c.17.37.34.74.53,1.11s.31.61.48.91l1.52,2.52c.21.31.42.62.65.92l1.62,2.06c.25.3.51.59.78.88l1.89,1.89c.26.24.51.47.78.69l.68.57a25.93,25.93,0,0,0,2.24,1.66c.3.22.61.42.93.61,0,0,0,0,0,0,.33.22.67.42,1,.62s.65.37,1,.55l.17.09,1,.49,1.07.49.13.06,1,.42c.38.15.76.29,1.15.42a30.51,30.51,0,0,0,4.78,1.25l.29,0c.5.09,1,.16,1.52.22.33.05.66.08,1,.11h.06c.44,0,.88.07,1.33.09s1,0,1.5,0,1,0,1.49,0,.89-.06,1.33-.09h.06a32,32,0,0,0,26.41-19c.3-.68.58-1.37.83-2.08.13-.36.25-.73.37-1.1s.29-.93.41-1.41.2-.75.28-1.13l.07-.28c.08-.39.16-.78.23-1.17h0s0,0,0-.08a.31.31,0,0,1,0-.1L63.6,37c0-.21.07-.42.09-.63l0-.19,0-.29c0-.27.06-.53.09-.81s0-.4,0-.6,0-.63.07-1c0-.5,0-1,0-1.51S64,31,64,30.49Zm-7.78-2.68A25.11,25.11,0,0,1,56.54,32a23.77,23.77,0,0,1-.21,3.17c0,.34-.09.69-.15,1h0c-.5.17-1,.33-1.57.48s-1.12.32-1.71.47a71.87,71.87,0,0,1-9.41,1.67c.14-2.21.22-4.49.22-6.82,0-1.12,0-2.24-.06-3.33,0-.61,0-1.22-.07-1.82s-.07-1.11-.1-1.66h0a75.32,75.32,0,0,1,7.89,1.31c.77.17,1.51.35,2.21.54l1.35.38ZM41.05,9.19a25,25,0,0,1,7.39,4.61c.61.56,1.2,1.15,1.76,1.76A25,25,0,0,1,54.81,23h0a74.66,74.66,0,0,0-8.52-1.69c-1-.15-2.08-.28-3.16-.39-.11-1.08-.24-2.13-.39-3.16-.29-2.06-.64-4-1-5.86-.2-.92-.41-1.81-.64-2.66ZM27.8,7.83a25.2,25.2,0,0,1,4.1-.37H32a25,25,0,0,1,4.18.36h0c.06.2.13.41.19.62a65.87,65.87,0,0,1,2.43,12.07h0c-1.1-.07-2.22-.12-3.35-.16h0c-1.13,0-2.28-.05-3.44-.05h-.1c-2.31,0-4.54.07-6.72.21A65.29,65.29,0,0,1,27.8,7.83ZM23,9.2a77,77,0,0,0-2.08,11.68A78.23,78.23,0,0,0,9.19,23,24.61,24.61,0,0,1,23,9.2ZM8.44,36.4l-.62-.19h0A24.3,24.3,0,0,1,7.45,32v0c0-.68,0-1.36.09-2,0-.06,0-.12,0-.18.06-.67.15-1.32.26-2,.6-.2,1.24-.39,1.92-.58.44-.12.9-.25,1.37-.36a73.27,73.27,0,0,1,9.4-1.68c-.14,2.21-.22,4.49-.22,6.82s.08,4.61.22,6.81a75.32,75.32,0,0,1-7.89-1.31c-.77-.17-1.5-.35-2.2-.54S9.06,36.6,8.44,36.4Zm14.5,18.4v0c-.39-.15-.77-.32-1.15-.5h0a23.89,23.89,0,0,1-3.28-1.83A24.65,24.65,0,0,1,9.19,41.06h0c.85.23,1.74.44,2.66.65h0c1.83.4,3.79.75,5.85,1,1,.14,2.08.27,3.16.39h0A77,77,0,0,0,23,54.81Zm13.25,1.38a25.1,25.1,0,0,1-4.1.37H32c-.36,0-.71,0-1.07,0a26.64,26.64,0,0,1-3.11-.34h0A65.45,65.45,0,0,1,25.18,43.5h0c1.1.07,2.21.12,3.34.16h0c1.14,0,2.28.05,3.45.05h.09q3.45,0,6.72-.21A65.29,65.29,0,0,1,36.19,56.18Zm3-17c-2.22.15-4.59.24-7.11.24H32c-2.55,0-4.95-.09-7.2-.24h0c0-.13,0-.25,0-.38-.14-2.13-.22-4.4-.22-6.82s.09-5,.24-7.21c2.22-.15,4.59-.24,7.11-.24H32c2.55,0,4.94.09,7.19.24h0c0,.13,0,.25,0,.38.14,2.14.22,4.4.22,6.82S39.35,37,39.2,39.21Zm1.85,15.6a77,77,0,0,0,2.07-11.68A77,77,0,0,0,54.8,41.05,24.63,24.63,0,0,1,41.05,54.81Z" style="fill: #4068b1"/>
      <path d="M63.84,35.06c0,.28-.05.54-.09.81,0-.3.08-.61.11-.91l0-.5C63.88,34.66,63.86,34.86,63.84,35.06Zm-.24-8c0,.21.07.41.09.62,0,0,0,.07,0,.11s0-.07,0-.11C63.67,27.45,63.64,27.25,63.6,27Zm-.1,10.57c0-.21.07-.42.1-.63l-.09.53A.31.31,0,0,0,63.5,37.61ZM46.28,21.27A74.66,74.66,0,0,1,54.8,23h0A70.84,70.84,0,0,0,46.28,21.27Zm-2.81,3.92c0,.55.06,1.1.1,1.66,0-.56-.06-1.11-.09-1.66Zm-.74-7.47c-.28-2.06-.63-4-1-5.86C42.09,13.7,42.44,15.66,42.73,17.72Zm-3.93,2.8h0c-1.1-.07-2.22-.12-3.35-.15C36.58,20.4,37.7,20.45,38.8,20.52ZM35,.15h-.15l1,.11ZM31.9,20.3H32c1.16,0,2.31,0,3.44.05-1.13,0-2.28-.06-3.44-.06Zm-1,36.23c.36,0,.71,0,1.07,0h0Zm1-49.07h0Zm-6.72,36A65.45,65.45,0,0,0,27.8,56.19h0A64.55,64.55,0,0,1,25.2,43.5Zm-.39-4.29h0c0-.13,0-.25,0-.38C24.77,39,24.78,39.08,24.79,39.21ZM22.94,54.82v0c-.39-.15-.77-.31-1.15-.48C22.17,54.5,22.55,54.67,22.94,54.82Zm-1.16-.5a25,25,0,0,1-3.28-1.83A23.89,23.89,0,0,0,21.78,54.32ZM12.62,37.51,10.42,37C11.12,37.16,11.85,37.34,12.62,37.51ZM10.42,37c-.69-.19-1.36-.38-2-.57C9.06,36.6,9.73,36.79,10.42,37Zm-2.6-.76.62.19-.62-.2ZM1.91,21.12c.24-.67.5-1.33.8-2l0,0C2.41,19.78,2.14,20.44,1.91,21.12Z"/>
    </symbol>
    <symbol id="d" data-name="Play - Orange" viewBox="0 0 64 64">
      <path d="M64,32A32,32,0,1,1,32,0,32,32,0,0,1,64,32Z" style="fill: #4068b1"/>
      <polygon points="24.5 47 49.3 33 24.5 19 24.5 47" style="opacity: 0.8;mix-blend-mode: multiply;fill: url(#a)"/>
      <polygon points="23.5 46 48.3 32 23.5 18 23.5 46" style="fill: #fff"/>
    </symbol>
    <symbol id="e" data-name="Pause - Orange" viewBox="0 0 64 64">
      <path d="M64,32A32,32,0,1,1,32,0,32,32,0,0,1,64,32Z" style="fill: #4068b1"/>
      <g style="opacity: 0.8;mix-blend-mode: multiply">
        <rect x="19" y="19" width="9.33" height="28" style="fill: #fff;opacity: 0.8;mix-blend-mode: multiply"/>
        <rect x="37.67" y="19" width="9.33" height="28" style="fill: #fff;opacity: 0.8;mix-blend-mode: multiply"/>
      </g>
      <g>
        <rect x="18" y="18" width="9.33" height="28" style="fill: #fff"/>
        <rect x="36.67" y="18" width="9.33" height="28" style="fill: #fff"/>
      </g>
    </symbol>
  </defs>
  <g>
    <g>
      <path d="M75.88,121.79v8.45H62.29V88.18a3.33,3.33,0,0,0-.79-2.45,2.14,2.14,0,0,0-1.81-.87,2.79,2.79,0,0,0-2,.9,3.28,3.28,0,0,0-.9,2.42V118.1a11.39,11.39,0,0,1-3.65,8.78,12.87,12.87,0,0,1-9.07,3.36H17.71q-7.23,0-10.27-6.86a33.85,33.85,0,0,1-1.51-6.87H14a10.44,10.44,0,0,0,.43,2.89q.66,2.89,4.12,2.89H44.08q4.85,0,4.84-4.91V85.94a9.06,9.06,0,0,1,3.18-7.26A11.21,11.21,0,0,1,59.62,76,10.13,10.13,0,0,1,67,78.86q3.39,3.26,3.4,9.32v33.61Z" transform="translate(-5.93 -14.85)" style="fill: #4068b1"/>
      <path d="M120.54,130.24h-8V99.67q0-3.54-2.31-3.54a2.43,2.43,0,0,0-2,1,3.92,3.92,0,0,0-.8,2.56v17.78a12.52,12.52,0,0,1-3.54,9.21,12.33,12.33,0,0,1-9.18,3.58h-25v-8.45H94.23q5.2,0,5.21-5.5l.14-17a12.39,12.39,0,0,1,3.54-9A10.4,10.4,0,0,1,110.71,87a8.72,8.72,0,0,1,6.79,3q3,3.39,3,9.68ZM96,150a6,6,0,0,1-1.81,4.41A6.19,6.19,0,0,1,83.68,150a5.71,5.71,0,0,1,2-4.3,6.08,6.08,0,0,1,4.16-1.84,5.74,5.74,0,0,1,4.37,1.88A6,6,0,0,1,96,150Zm12.14,0a6,6,0,0,1-1.81,4.41A6.19,6.19,0,0,1,95.82,150a5.71,5.71,0,0,1,2-4.3,6.08,6.08,0,0,1,4.16-1.84,5.74,5.74,0,0,1,4.37,1.88A6,6,0,0,1,108.11,150Z" transform="translate(-5.93 -14.85)" style="fill: #4068b1"/>
      <path d="M196.42,121.79v8.45H182.83V88.18a3.33,3.33,0,0,0-.79-2.45,2.14,2.14,0,0,0-1.81-.87,2.79,2.79,0,0,0-2,.9,3.28,3.28,0,0,0-.9,2.42V118.1a11.39,11.39,0,0,1-3.65,8.78,12.89,12.89,0,0,1-9.07,3.36H138.24q-7.22,0-10.26-6.86a33.72,33.72,0,0,1-1.52-6.87h8.1a10.44,10.44,0,0,0,.43,2.89q.66,2.89,4.12,2.89h25.51q4.84,0,4.84-4.91V85.94a9.06,9.06,0,0,1,3.18-7.26A11.21,11.21,0,0,1,180.16,76a10.13,10.13,0,0,1,7.37,2.89q3.39,3.26,3.4,9.32v33.61Z" transform="translate(-5.93 -14.85)" style="fill: #4068b1"/>
      <path d="M286.68,130.24h-9a12.9,12.9,0,0,1-6.28-3.83,9.8,9.8,0,0,1-2.46-6.79V96.35a5,5,0,0,0-1.37-3.83,4,4,0,0,0-2.68-.87h-40a3.12,3.12,0,0,0-2.28.9,3.2,3.2,0,0,0-.9,2.35,3.67,3.67,0,0,0,.8,2.32,3.23,3.23,0,0,0,2.38.93h38.95v22.7a18.83,18.83,0,0,1-3.68,6.5,8.31,8.31,0,0,1-6.29,2.89H195v-8.45h60.78V106.1H224.53a12,12,0,0,1-9.11-3.83A11.67,11.67,0,0,1,212.1,94a9.33,9.33,0,0,1,3-7.16q3.33-3.18,9.47-3.18h42.64a9.58,9.58,0,0,1,6.5,3q3.18,3,3.18,6.29v28.84h9.83Zm-26.52,22.62a6,6,0,0,1-1.81,4.41,6,6,0,0,1-8.64,0,6,6,0,0,1-1.84-4.37,5.68,5.68,0,0,1,2-4.3,6.05,6.05,0,0,1,4.15-1.84,5.77,5.77,0,0,1,4.38,1.88A6,6,0,0,1,260.16,152.86ZM319,20.54v95.83a16,16,0,0,1-1.88,8.09,10.78,10.78,0,0,1-2,2.46q-4.33,3.31-12.07,3.32l-23.34.07v-8.52h23a10.89,10.89,0,0,0,2.13-.19,19.54,19.54,0,0,0,2-.46q4.19-1.31,4.19-4.77V20.54Z" transform="translate(-5.93 -14.85)" style="fill: #4068b1"/>
      <path d="M343,20.54v109.7h-8V20.54Z" transform="translate(-5.93 -14.85)" style="fill: #4068b1"/>
      <path d="M455.56,121.79q5.28,0,5.28-5.5v-17a12.39,12.39,0,0,1,3.54-9A10.47,10.47,0,0,1,472,87a8.72,8.72,0,0,1,6.79,3q3,3.39,3,9.68v30.57h-8V99.74a4.08,4.08,0,0,0-.69-2.63,2.34,2.34,0,0,0-1.7-.91,2.45,2.45,0,0,0-1.84.94,3.66,3.66,0,0,0-.83,2.53v17.85a12.48,12.48,0,0,1-3.51,9.18,12.28,12.28,0,0,1-9.14,3.54H408.08a8.14,8.14,0,0,1-5.56-1.73,13,13,0,0,1-2.38-4.48V86.88h7.94v28q0,4.18,2,6a8.34,8.34,0,0,0,2,.87ZM442.77,65.42a6,6,0,0,1-1.8,4.41,6,6,0,0,1-4.34,1.8,6.1,6.1,0,0,1-4.34-1.8,6.33,6.33,0,0,1-1.8-4.41,5.7,5.7,0,0,1,2-4.3,6.08,6.08,0,0,1,4.16-1.84A5.67,5.67,0,0,1,441,61.23,6.15,6.15,0,0,1,442.77,65.42Zm12.14,0a6,6,0,0,1-1.8,4.41,5.94,5.94,0,0,1-4.34,1.8,6.1,6.1,0,0,1-4.34-1.8,6.33,6.33,0,0,1-1.8-4.41,5.7,5.7,0,0,1,2-4.3,6.08,6.08,0,0,1,4.16-1.84,5.67,5.67,0,0,1,4.37,1.95A6.15,6.15,0,0,1,454.91,65.42Z" transform="translate(-5.93 -14.85)" style="fill: #4068b1"/>
      <path d="M507.74,130.24h-.8c-5.71,0-9.39-1.16-12.35-4.12-4.41-4.48-4.48-9.61-4.48-20.23,0-13.73-.8-28.11-1.88-43.43A64.41,64.41,0,0,1,495,55.73l.51.29c1.15,15.83,1.15,34.55,1.15,52.32v4.12a7.56,7.56,0,0,0,5.42,7.74,14.62,14.62,0,0,0,4.63.79h1Z" transform="translate(-5.93 -14.85)" style="fill: #4068b1"/>
      <path d="M536.65,121v9.25H507.74c-4,0-5.06-2.89-5.06-4.84,0-1.74,1.16-4.41,5.06-4.41Z" transform="translate(-5.93 -14.85)" style="fill: #4068b1"/>
      <path d="M565.55,121v9.25h-28.9c-4,0-5.06-2.89-5.06-4.84,0-1.74,1.15-4.41,5.06-4.41Z" transform="translate(-5.93 -14.85)" style="fill: #4068b1"/>
    </g>
    <use width="55.49" height="55.56" transform="matrix(-0.96, 0, 0, 1, 435.01, 0)" xlink:href="#b"/>
    <use width="64" height="64.01" transform="translate(518.71 36.75) scale(1.22)" xlink:href="#c"/>
    <use width="64" height="64" transform="translate(234.3 120.17) scale(0.46 0.46)" xlink:href="#d"/>
    <use width="64" height="64" transform="translate(76.34 120.17) scale(0.46)" xlink:href="#e"/>
  </g>
</svg>
